 <svg
        xmlns="http://www.w3.org/2000/svg"
        version="1.1"
        viewBox="1 266 42 42"
        width="100%"
        height="100%"
      >
        <path
          fill="#FFC259"
          d="M2.6,282.3c0,0,0.3-0.4,0.7-1.1c0.5-0.7,2.5-3.6,3-4.2s2.4-3.1,2.9-3.7s2-1.9,3.3-2.6s3-0.8,3.9-1
			c0.9-0.1,5-0.5,5.5-0.5s3.9-0.3,4.5-0.4c0.7-0.1,4.2-0.4,4.6-0.5c0.4,0,3-0.3,3.3-0.2c0.3,0.1,0.4,0.8,0.6,1.2
			c0.2,0.4,1.5,4.4,1.5,4.4l0.5,1.5l-1.1,0.1c0,0-1.3,0.7-1.1,2.1c0.3,1.4,0.8,1.9,1.3,2.3s1.6,0.4,1.6,0.4l0.7-0.4l0.7,2.6
			c0,0-0.3,0.2-1.2-0.3s-1-0.3-1-0.3s-0.1,0.4-0.6,1c-0.6,0.5-0.7,0.6-0.5,1.1s0.3,1,0.7,1.2s1.3,0.2,1.6,0.2s1.1,0.4,1.1,0.5
			s1.1,0,1.1,0l0.6,2c0,0-0.4,0.1-0.3,0.9c0.1,0.8,1,1,1,1l0.8,2.7c0,0-2.2,2.1-4.5,3.3s-5,2.7-7.3,3.6c-2.3,1-6.2,2.2-7.7,2.5
			c-1.6,0.4-4.4,0.9-6.1,0.9s-3.3-0.4-4.3-0.8s-2.5-2-2.5-2s-1.8-2-2.3-2.7s-1.8-2.9-2.2-3.8c-0.4-0.8-1.3-3.2-1.5-3.7
			S3.3,287.7,3,287s-0.5-1.9-0.6-2.9C2.2,283.4,2.3,283,2.6,282.3z"
        ></path>
        <g>
          <path
            d="M16.3,303c-2.9,0-4.5-0.7-5.4-1.6c-1.5-1.3-4.2-3.7-6.4-9.1S2.2,285.8,2,284c-0.2-2.2,1.4-2.9,4.7-4.3
				c1.1-0.5,2.6-1.1,4.2-1.8c6.4-3,12.6-5.5,17.1-7.3c4.8-1.9,6.3-2.7,6.3-2.7c0.1,0,0.1,0,0.2,0c0.1,0,0.1,0.1,0.1,0.2l2.5,7.2
				c0,0.1,0,0.2,0,0.2c-0.1,0.1-0.1,0.1-0.2,0.1c0,0-1.8-0.2-2.8,0.8c-0.5,0.5-0.7,1.2-0.6,2.2c0.1,0.8,0.4,1.3,0.9,1.6
				c1.3,0.7,3.6-0.6,3.7-0.6c0.1,0,0.1,0,0.2,0s0.1,0.1,0.1,0.2l0.8,2.6c0,0.1,0,0.2-0.1,0.3c0,0-0.5,0.3-1.2-0.2
				c-0.1-0.1-0.2-0.1-0.3-0.2c-0.4-0.3-0.6-0.5-1.2-0.1c-0.8,0.6-1.5,0.6-2.1,0.6h-0.2c-0.1,0-0.1,0-0.1,0.1
				c-0.1,0.1-0.3,0.5-0.2,1.8c0,0.5,0.3,0.7,0.6,0.9c0.2,0.1,0.4,0.2,0.6,0.4c0.1,0.1,0.2,0.2,0.3,0.3c0.4,0.5,0.8,1,1.7,0.6
				c0.5-0.2,0.7-0.4,0.8-0.7c0.2-0.3,0.3-0.6,1-0.6c1.1-0.1,1.4,0,1.4,0c0.1,0,0.2,0.1,0.2,0.2l0.6,1.9c0,0.1,0,0.1,0,0.2
				s-0.1,0.1-0.2,0.1c-0.2,0-0.7,0.1-0.9,0.4c-0.1,0.1-0.1,0.3-0.1,0.5s0.1,0.3,0.3,0.4c0.4,0.2,1,0.1,1.2,0c0.1,0,0.3,0,0.3,0.2
				c0.1,0.2,0.8,2.3,0.9,2.7c0.1,0.8-7.8,6.3-16.8,9C21.6,302.6,18.6,303,16.3,303z M2.5,284c0.2,1.7,0.3,2.8,2.5,8.1
				c2.1,5.3,4.8,7.7,6.2,8.9c1.6,1.4,5.3,2.5,14.3-0.2c9.1-2.8,15.9-7.8,16.4-8.5c-0.1-0.4-0.6-1.7-0.8-2.4
				c-0.3,0.1-0.9,0.1-1.3-0.1c-0.3-0.2-0.5-0.4-0.5-0.7c-0.1-0.4,0-0.7,0.2-0.9c0.2-0.3,0.7-0.5,1-0.6l-0.4-1.5c-0.2,0-0.5,0-1.1,0
				c-0.4,0-0.5,0.1-0.6,0.4s-0.4,0.6-1.1,0.9c-1.2,0.5-1.8-0.2-2.2-0.8c-0.1-0.1-0.2-0.2-0.3-0.3c-0.1-0.1-0.3-0.2-0.5-0.3
				c-0.4-0.2-0.8-0.5-0.8-1.3c-0.1-1.2,0-1.9,0.3-2.2c0.1-0.1,0.3-0.2,0.5-0.2h0.2c0.6,0,1.2,0,1.9-0.5c0.8-0.6,1.3-0.2,1.8,0.1
				c0.1,0.1,0.2,0.1,0.3,0.2c0.2,0.1,0.4,0.2,0.5,0.2l-0.6-2.1c-0.7,0.3-2.6,1.1-3.9,0.4c-0.7-0.3-1.1-1-1.2-2
				c-0.1-1.1,0.1-2,0.7-2.6c0.8-0.8,2.1-0.9,2.8-0.9l-2.3-6.5c-0.6,0.3-2.3,1.1-6.1,2.6c-4.5,1.8-10.7,4.2-17.1,7.2
				c-1.6,0.8-3.1,1.4-4.2,1.9C3.7,281.6,2.3,282.2,2.5,284z"
          ></path>
          <path
            d="M37.3,280.3c-0.8,0-2-0.3-2.6-2c-0.3-0.8-0.3-1.5,0-2.1c0.4-0.8,1.3-1.1,1.3-1.1c0.1,0,0.3,0,0.3,0.2
				c0,0.1,0,0.3-0.2,0.3c0,0-0.7,0.2-1,0.8c-0.2,0.5-0.2,1,0,1.7c0.7,2.1,2.6,1.6,2.6,1.6c0.1,0,0.3,0,0.3,0.2c0,0.1,0,0.3-0.2,0.3
				C37.9,280.2,37.6,280.3,37.3,280.3z"
          ></path>
          <path
            d="M39.2,286.1c-0.1,0-0.2,0-0.2-0.1c0,0-0.2-0.2-0.8-0.4c-0.3-0.1-0.6-0.1-0.8-0.1c-0.4,0-0.8,0-1.2-0.4s-0.7-1-0.7-1.5
				s0.2-0.9,0.6-1.2c0.6-0.5,0.7-0.8,0.7-0.8c0-0.1,0.1-0.2,0.3-0.2c0.1,0,0.2,0.1,0.2,0.2s0,0.6-0.9,1.2c-0.3,0.2-0.4,0.5-0.4,0.8
				c0,0.4,0.2,0.8,0.5,1.1c0.3,0.3,0.6,0.3,0.9,0.3c0.3,0,0.6,0,1,0.1c0.9,0.3,1.1,0.5,1.1,0.6C39.4,285.9,39.4,286.1,39.2,286.1
				L39.2,286.1z"
          ></path>
          <path
            d="M20.2,285c-0.2,0-0.5,0-0.8-0.1c-1.3-0.4-2.1-1-2.2-1.8c-0.2-1.5,1.8-2.8,2-2.9c0.5-0.3,0.8-0.6,1-0.8
				c0.3-0.4,0.5-0.6,1.2-0.5c0.4,0.1,0.8,0.3,1,0.6c0.3,0.4,0.4,1.1,0.3,1.6c-0.1,0.2-0.1,0.5-0.1,0.7c-0.1,0.5-0.1,1-0.5,1.6
				c-0.1,0.1-0.2,0.3-0.2,0.4C21.5,284.3,21.2,285,20.2,285z M21.1,279.3c-0.2,0-0.3,0.1-0.5,0.3c-0.2,0.2-0.5,0.6-1.1,0.9
				c-0.9,0.6-1.9,1.6-1.8,2.5c0.1,0.6,0.7,1.1,1.8,1.4l0,0c1.2,0.4,1.5-0.2,1.8-0.9c0.1-0.2,0.2-0.4,0.3-0.5
				c0.3-0.4,0.3-0.9,0.4-1.4c0-0.2,0-0.5,0.1-0.7c0.1-0.4,0-0.9-0.2-1.2C21.7,279.5,21.5,279.3,21.1,279.3
				C21.2,279.3,21.1,279.3,21.1,279.3z"
          ></path>
          <path
            d="M8.6,288.1c-0.3,0-0.6-0.1-0.9-0.7c-0.1-0.2-0.2-0.3-0.3-0.5c-0.6-0.9-1-1.6-0.4-3.2c0.5-1.1,1.1-1.2,1.5-1.2
				c0.7,0,1.3,0.5,1.6,1.3c0.3,0.7,0,1.3-0.3,1.7c-0.2,0.4-0.3,0.6-0.2,0.8c0.2,0.6-0.1,1.3-0.6,1.6C8.9,288.1,8.7,288.1,8.6,288.1z
				 M8.4,283.1c-0.5,0-0.8,0.5-1,0.9l0,0c-0.6,1.3-0.3,1.8,0.3,2.7c0.1,0.2,0.2,0.3,0.3,0.5s0.4,0.5,0.6,0.4
				c0.3-0.1,0.5-0.6,0.4-0.9c-0.1-0.5,0.1-0.8,0.3-1.2c0.2-0.4,0.4-0.8,0.2-1.3C9.4,283.6,8.9,283.1,8.4,283.1L8.4,283.1z
				 M7.2,283.9L7.2,283.9L7.2,283.9z"
          ></path>
          <path
            d="M18.8,294.4c-0.2,0-0.4,0-0.6-0.1c-0.4-0.1-0.7-0.1-1-0.1c-1.2-0.1-1.6-0.2-2.1-2l0,0c-0.2-0.7,0-1.2,0.7-1.5
				c1.2-0.5,3.4,0,4,1c0.5,0.8,0.7,1.6,0.3,2.1C19.9,294.1,19.5,294.4,18.8,294.4z M16.9,291c-0.4,0-0.7,0.1-0.9,0.2
				c-0.4,0.2-0.5,0.5-0.4,0.9l0,0c0.4,1.5,0.6,1.5,1.7,1.6c0.3,0,0.6,0.1,1,0.1c0.7,0.1,1.2,0,1.4-0.3c0.2-0.3,0.1-1-0.3-1.6
				C19,291.4,17.9,291,16.9,291z"
          ></path>
          <path
            d="M34.5,293.9c-0.2,0-0.4,0-0.6-0.1c-0.4-0.1-0.7-0.1-1-0.1c-1.2-0.1-1.6-0.2-2.1-2l0,0c-0.2-0.7,0-1.2,0.7-1.5
				c1.2-0.5,3.4,0,4,1c0.5,0.8,0.7,1.6,0.3,2.1C35.6,293.6,35.3,293.9,34.5,293.9z M31.3,291.6c0.4,1.5,0.6,1.5,1.7,1.6
				c0.3,0,0.6,0.1,1,0.1c0.7,0.1,1.2,0,1.4-0.3s0.1-1-0.3-1.6c-0.5-0.8-2.4-1.2-3.4-0.8C31.3,290.8,31.2,291.1,31.3,291.6
				L31.3,291.6z"
          ></path>
          <path
            d="M26.8,290.6c-0.3,0-0.7-0.1-1.1-0.4c-0.8-0.5-0.9-0.7-0.9-1.3c0-0.2-0.1-0.4-0.1-0.7l0,0c-0.3-1.1-0.2-2,0.2-2.6
				c0.4-0.6,1.2-1,2.2-1.2c1.2-0.2,1.7,0.3,2.1,0.7c0.3,0.3,0.5,0.5,1,0.5c0.7,0,1,0.3,1.1,0.6c0.3,0.5,0.2,1.2-0.1,1.6
				c-0.2,0.4-0.7,0.7-1.4,1.1c-0.4,0.3-0.9,0.5-1.3,0.9C28,290.2,27.5,290.6,26.8,290.6z M27.5,284.9c-0.1,0-0.3,0-0.4,0
				c-0.9,0.1-1.5,0.5-1.8,1c-0.4,0.5-0.4,1.3-0.2,2.2l0,0c0.1,0.3,0.1,0.5,0.1,0.7c0.1,0.4,0.1,0.5,0.7,0.9c0.9,0.6,1.4,0.3,2.3-0.4
				c0.4-0.3,0.9-0.6,1.3-0.9c0.5-0.3,1-0.6,1.2-0.9s0.3-0.8,0.1-1.1c-0.1-0.2-0.4-0.3-0.7-0.3c-0.7,0-1-0.4-1.3-0.7
				C28.5,285.2,28.2,284.9,27.5,284.9z"
          ></path>
          <path
            d="M25.8,295.5c-0.4,0-0.9-0.4-1-1c-0.1-0.5,0-0.7,0.2-0.8c0.2-0.2,0.5-0.2,0.8,0s0.7,0.5,0.7,1
				C26.4,295.2,26.1,295.4,25.8,295.5L25.8,295.5z M25.3,294.1L25.3,294.1c-0.1,0-0.1,0.1-0.1,0.3l0,0c0.1,0.4,0.4,0.6,0.5,0.6
				s0.1-0.2,0.1-0.3c0-0.3-0.2-0.5-0.4-0.5C25.5,294.1,25.4,294.1,25.3,294.1z"
          ></path>
          <path
            d="M16.1,298.4c-0.3,0-0.4-0.1-0.5-0.3c-0.1-0.3,0.1-0.8,0.5-1l0,0c0.3-0.2,0.6-0.1,0.7,0c0.2,0.1,0.3,0.4,0.2,0.7
				c-0.1,0.4-0.3,0.6-0.6,0.7C16.3,298.3,16.2,298.4,16.1,298.4z M16.5,297.4c0,0,0,0-0.1,0.1l0,0c-0.3,0.2-0.3,0.4-0.3,0.4h0.1
				c0.1,0,0.2-0.2,0.2-0.2C16.5,297.5,16.5,297.4,16.5,297.4z M16.2,297.2L16.2,297.2L16.2,297.2z"
          ></path>
          <path
            d="M14.1,297.6c-0.3,0-0.6-0.1-0.8-0.4l0,0c-0.3-0.3-0.2-0.5-0.2-0.6c0.1-0.2,0.3-0.3,0.6-0.3l0,0c0.4,0,0.7,0.2,0.8,0.5
				c0.2,0.4,0,0.6-0.2,0.8C14.3,297.5,14.2,297.6,14.1,297.6z M13.6,296.8L13.6,296.8L13.6,296.8c0.3,0.3,0.5,0.3,0.5,0.3V297
				c-0.1-0.1-0.2-0.2-0.3-0.2C13.7,296.7,13.6,296.7,13.6,296.8L13.6,296.8z"
          ></path>
          <path
            d="M11.2,293.3c-0.3,0-0.7-0.3-0.8-0.7l0,0c-0.1-0.4,0-0.6,0.1-0.6c0.2-0.1,0.4-0.2,0.7-0.1s0.5,0.5,0.6,0.8
				C11.7,293,11.5,293.2,11.2,293.3C11.2,293.2,11.2,293.3,11.2,293.3z M10.8,292.4c0.1,0.3,0.3,0.4,0.3,0.4s0,0,0-0.1
				s-0.1-0.2-0.2-0.3c-0.1-0.1-0.2-0.1-0.2-0.1C10.8,292.3,10.8,292.3,10.8,292.4L10.8,292.4z"
          ></path>
          <path
            d="M26.2,280.2c-0.1,0-0.2,0-0.3-0.1l0,0c-0.7-0.3-1.1-0.6-1.2-1c-0.1-0.3-0.1-0.7,0.2-1.1c0.2-0.4,0.6-0.7,1-0.6
				c0.5,0,0.9,0.3,1.1,0.8s0.2,1.4-0.2,1.8C26.6,280.1,26.4,280.2,26.2,280.2z M26.1,279.6c0.2,0.1,0.3,0,0.3,0
				c0.2-0.3,0.3-0.9,0.1-1.2c-0.1-0.3-0.4-0.5-0.7-0.5l0,0c-0.2,0-0.4,0.1-0.5,0.4c-0.2,0.3-0.2,0.6-0.2,0.7
				C25.2,279.2,25.5,279.4,26.1,279.6L26.1,279.6z"
          ></path>
          <path
            d="M30.4,283.4c-0.1,0-0.2,0-0.3-0.1l0,0c-0.7-0.3-1.1-0.6-1.2-1c-0.1-0.3,0-0.7,0.2-1.1s0.6-0.6,1-0.6l0,0
				c0.5,0,0.9,0.3,1.1,0.8s0.2,1.4-0.2,1.8C30.8,283.3,30.6,283.4,30.4,283.4z M30.3,282.8c0.2,0.1,0.3,0,0.3,0
				c0.2-0.3,0.3-0.9,0.1-1.2c-0.1-0.3-0.4-0.5-0.7-0.5c-0.2,0-0.4,0.1-0.5,0.4c-0.2,0.3-0.2,0.6-0.2,0.7
				C29.4,282.4,29.7,282.6,30.3,282.8L30.3,282.8z"
          ></path>
          <path
            d="M2.9,282.4L2.9,282.4c-0.2-0.1-0.2-0.2-0.2-0.3c0.2-0.3,5.1-7.7,7.3-9.6c2.3-1.9,3.5-2.5,8-2.9c1.9-0.2,4.5-0.4,7-0.7
				c4.5-0.4,8.8-0.8,9.4-0.8l0,0c0.1,0,0.2,0.1,0.2,0.3c0,0.1-0.1,0.2-0.3,0.2l0,0c-0.7,0-5.1,0.4-9.4,0.8c-2.5,0.2-5.1,0.5-7,0.7
				c-4.4,0.4-5.5,0.9-7.7,2.8C8,274.7,3,282.3,3,282.4C3,282.3,2.9,282.4,2.9,282.4z"
          ></path>
          <path
            d="M7.9,279.8c-0.1,0-0.2,0-0.2-0.1c-0.1-0.1,0-0.2,0.1-0.3c0.2-0.3,2.4-3.3,3.8-5.4c0.1-0.1,0.2-0.1,0.3-0.1
				s0.1,0.2,0.1,0.3c-3.7,5.4-3.9,5.5-3.9,5.5C8,279.8,8,279.8,7.9,279.8z"
          ></path>
          <path
            d="M11.6,278.1c-0.1,0-0.2,0-0.2-0.1c-0.1-0.1,0-0.2,0.1-0.3c0.2-0.3,2.4-3.4,3.9-5.5c0.1-0.1,0.2-0.1,0.3-0.1
				s0.1,0.2,0.1,0.3c-3.8,5.5-3.9,5.6-4,5.6C11.7,278.1,11.6,278.1,11.6,278.1z"
          ></path>
          <path
            d="M15.2,276.4c-0.1,0-0.1,0-0.1,0c-0.1-0.1-0.1-0.2-0.1-0.3l4-5.7c0.1-0.1,0.2-0.1,0.3-0.1c0.1,0.1,0.1,0.2,0.1,0.3l-4,5.7
				C15.3,276.4,15.3,276.4,15.2,276.4z"
          ></path>
          <path
            d="M18.6,275c-0.1,0-0.2,0-0.2-0.1c-0.1-0.1,0-0.2,0.1-0.3c0.2-0.2,1.6-2.2,3.7-5.2c0.1-0.1,0.2-0.1,0.3-0.1
				s0.1,0.2,0.1,0.3c-3.7,5.2-3.8,5.3-3.8,5.3C18.7,275,18.6,275,18.6,275z"
          ></path>
          <path
            d="M22,273.6c-0.1,0-0.1,0-0.1,0c-0.1-0.1-0.1-0.2-0.1-0.3l2.9-4.1c0.1-0.1,0.2-0.1,0.3-0.1c0.1,0.1,0.1,0.2,0.1,0.3
				l-2.9,4.1C22.2,273.5,22.1,273.6,22,273.6z"
          ></path>
          <path
            d="M25.3,272.2c-0.1,0-0.1,0-0.1,0c-0.1-0.1-0.1-0.2-0.1-0.3l2.1-3c0.1-0.1,0.2-0.1,0.3-0.1c0.1,0.1,0.1,0.2,0.1,0.3l-2.1,3
				C25.5,272.2,25.4,272.2,25.3,272.2z"
          ></path>
          <path
            fill="none"
            stroke="#000000"
            strokeWidth="0.5"
            strokeLinecap="round"
            strokeLinejoin="round"
            strokeMiterlimit="10"
            d="
				M32,265.1"
          ></path>
          <path
            d="M28.7,270.9h-0.1c-0.1-0.1-0.1-0.2-0.1-0.3l1.3-1.9c0.1-0.1,0.2-0.1,0.3-0.1c0.1,0.1,0.1,0.2,0.1,0.3l-1.3,1.9
				C28.9,270.9,28.8,270.9,28.7,270.9z"
          ></path>
          <path
            d="M32.8,269.2C32.7,269.2,32.7,269.2,32.8,269.2c-0.2-0.1-0.2-0.2-0.2-0.3l0.5-0.7c0.1-0.1,0.2-0.1,0.3-0.1
				c0.1,0.1,0.1,0.2,0.1,0.3l-0.5,0.7C33,269.2,32.9,269.2,32.8,269.2z"
          ></path>
          <path
            d="M33.4,279.1c-0.1,0-0.1,0-0.2-0.1c-0.1-0.1-0.1-0.3,0-0.4c0.7-0.8,1.3-1.2,1.4-1.2c0.1-0.1,0.3,0,0.3,0.1
				c0.1,0.1,0,0.3-0.1,0.3c0,0-0.6,0.4-1.3,1.1C33.5,279,33.5,279.1,33.4,279.1z"
          ></path>
          <path
            d="M34.3,280.5c-0.1,0-0.1,0-0.2-0.1c-0.1-0.1-0.1-0.3,0-0.4c0.4-0.4,0.7-0.6,0.8-0.6c0.1-0.1,0.3,0,0.3,0.1s0,0.3-0.1,0.3
				c0,0-0.2,0.1-0.7,0.6C34.4,280.5,34.4,280.5,34.3,280.5z"
          ></path>
          <path
            d="M36.4,280.7c-0.1,0-0.1,0-0.2-0.1c-0.1-0.1-0.1-0.3,0-0.4c0.3-0.3,0.4-0.4,0.5-0.4l0,0c0.1-0.1,0.3-0.1,0.4,0
				c0.1,0.1,0.1,0.2,0,0.4l0,0l0,0c-0.1,0.1-0.2,0.2-0.4,0.4C36.5,280.7,36.5,280.7,36.4,280.7z"
          ></path>
          <path
            d="M34,285.6c-0.1,0-0.1,0-0.2-0.1c-0.1-0.1-0.1-0.3,0-0.4c0.7-0.8,1.4-1.1,1.4-1.1c0.1-0.1,0.3,0,0.3,0.1
				c0.1,0.1,0,0.3-0.1,0.3c0,0-0.6,0.3-1.3,1C34.1,285.6,34.1,285.6,34,285.6z"
          ></path>
          <path
            d="M35.3,286.8c-0.1,0-0.1,0-0.2-0.1c-0.1-0.1-0.1-0.3,0-0.4c0.6-0.5,1-0.8,1-0.8c0.1-0.1,0.3-0.1,0.3,0.1s0.1,0.3-0.1,0.3
				c0,0-0.4,0.3-1,0.8C35.4,286.8,35.3,286.8,35.3,286.8z"
          ></path>
          <path
            d="M41.3,289.9L41.3,289.9c-0.1,0-0.8-0.1-1.1-1c-0.3-0.7,0.2-1.2,0.4-1.4c0.1-0.1,0.3,0,0.3,0.1c0.1,0.1,0,0.3-0.1,0.3
				c0,0-0.4,0.3-0.2,0.8s0.7,0.6,0.7,0.6c0.1,0,0.2,0.2,0.2,0.3C41.5,289.8,41.4,289.9,41.3,289.9z"
          ></path>
          <path
            d="M12.2,281.7c-0.1,0-0.1,0-0.2-0.1c-0.1-0.1-0.1-0.3,0-0.4l1.4-1.3c0.1-0.1,0.3-0.1,0.4,0c0.1,0.1,0.1,0.3,0,0.4l-1.4,1.3
				C12.3,281.7,12.3,281.7,12.2,281.7z"
          ></path>
          <path
            d="M13,283.7c-0.1,0-0.1,0-0.2-0.1c-0.1-0.1-0.1-0.3,0-0.4l2.2-2.1c0.1-0.1,0.3-0.1,0.4,0c0.1,0.1,0.1,0.3,0,0.4l-2.2,2.1
				C13.2,283.7,13.1,283.7,13,283.7z"
          ></path>
          <path
            d="M17.6,288c-0.1,0-0.1,0-0.2-0.1s-0.1-0.3,0-0.4l1.4-1.3c0.1-0.1,0.3-0.1,0.4,0s0.1,0.3,0,0.4l-1.4,1.3
				C17.7,287.9,17.7,288,17.6,288z"
          ></path>
          <path
            d="M18.4,289.9c-0.1,0-0.1,0-0.2-0.1s-0.1-0.3,0-0.4l2.2-2.1c0.1-0.1,0.3-0.1,0.4,0s0.1,0.3,0,0.4l-2.2,2.1
				C18.6,289.9,18.5,289.9,18.4,289.9z"
          ></path>
          <path
            d="M25.2,275.4c-0.1,0-0.1,0-0.2-0.1s-0.1-0.3,0-0.4l1.6-1.5c0.1-0.1,0.3-0.1,0.4,0s0.1,0.3,0,0.4l-1.6,1.5
				C25.4,275.4,25.3,275.4,25.2,275.4z"
          ></path>
          <path
            d="M26.8,276.1c-0.1,0-0.1,0-0.2-0.1s-0.1-0.3,0-0.4l1.2-1.1c0.1-0.1,0.3-0.1,0.4,0s0.1,0.3,0,0.4L27,276
				C27,276.1,26.9,276.1,26.8,276.1z"
          ></path>
          <path
            d="M17.3,300.1c-0.1,0-0.1,0-0.2-0.1s-0.1-0.3,0-0.4l1.4-1.3c0.1-0.1,0.3-0.1,0.4,0s0.1,0.3,0,0.4l-1.4,1.3
				C17.4,300.1,17.4,300.1,17.3,300.1z"
          ></path>
          <path
            d="M18.1,301.6c-0.1,0-0.1,0-0.2-0.1s-0.1-0.3,0-0.4l2.2-2.1c0.1-0.1,0.3-0.1,0.4,0s0.1,0.3,0,0.4l-2.2,2.1
				C18.2,301.6,18.2,301.6,18.1,301.6z"
          ></path>
          <path
            d="M28.7,296.1c-0.1,0-0.1,0-0.2-0.1s-0.1-0.3,0-0.4l1.4-1.3c0.1-0.1,0.3-0.1,0.4,0s0.1,0.3,0,0.4l-1.4,1.3
				C28.8,296.1,28.7,296.1,28.7,296.1z"
          ></path>
          <path
            d="M29.5,298.1c-0.1,0-0.1,0-0.2-0.1s-0.1-0.3,0-0.4l2.2-2.1c0.1-0.1,0.3-0.1,0.4,0s0.1,0.3,0,0.4l-2.2,2.1
				C29.6,298,29.6,298.1,29.5,298.1z"
          ></path>
          <path
            d="M18.6,284.6c-0.1,0-0.1,0-0.2-0.1s-0.1-0.3,0-0.4l2.7-2.5c0.1-0.1,0.3-0.1,0.4,0s0.1,0.3,0,0.4l-2.7,2.5
				C18.7,284.5,18.7,284.6,18.6,284.6z"
          ></path>
          <path
            d="M17.7,283.6c-0.1,0-0.1,0-0.2-0.1s-0.1-0.3,0-0.4l1.8-1.7c0.1-0.1,0.3-0.1,0.4,0s0.1,0.3,0,0.4l-1.8,1.7
				C17.8,283.6,17.7,283.6,17.7,283.6z"
          ></path>
          <path
            d="M6.9,285.6c-0.1,0-0.1,0-0.2-0.1s-0.1-0.3,0-0.4l1.2-1.1c0.1-0.1,0.3-0.1,0.4,0c0.1,0.1,0.1,0.3,0,0.4l-1.2,1.1
				C7,285.6,7,285.6,6.9,285.6z"
          ></path>
          <path
            d="M7.5,287c-0.1,0-0.1,0-0.2-0.1s-0.1-0.3,0-0.4l1.4-1.3c0.1-0.1,0.3-0.1,0.4,0c0.1,0.1,0.1,0.3,0,0.4L7.7,287
				C7.6,287,7.6,287,7.5,287z"
          ></path>
          <path
            d="M15.8,293.6c-0.1,0-0.1,0-0.2-0.1c-0.1-0.1-0.1-0.3,0-0.4l1.1-1.1c0.1-0.1,0.3-0.1,0.4,0s0.1,0.3,0,0.4l-1.1,1.1
				C15.9,293.5,15.9,293.6,15.8,293.6z"
          ></path>
          <path
            d="M17.5,294.2c-0.1,0-0.1,0-0.2-0.1s-0.1-0.3,0-0.4l1.1-1c0.1-0.1,0.3-0.1,0.4,0s0.1,0.3,0,0.4l-1.1,1
				C17.6,294.2,17.5,294.2,17.5,294.2z"
          ></path>
          <path
            d="M31.6,293c-0.1,0-0.1,0-0.2-0.1s-0.1-0.3,0-0.4l1.1-1.1c0.1-0.1,0.3-0.1,0.4,0c0.1,0.1,0.1,0.3,0,0.4l-1.1,1.1
				C31.7,293,31.6,293,31.6,293z"
          ></path>
          <path
            d="M33.2,293.7c-0.1,0-0.1,0-0.2-0.1c-0.1-0.1-0.1-0.3,0-0.4l1.1-1c0.1-0.1,0.3-0.1,0.4,0s0.1,0.3,0,0.4l-1.1,1
				C33.3,293.7,33.2,293.7,33.2,293.7z"
          ></path>
          <path
            d="M22.3,298.9c-0.1,0-0.2,0-0.3,0c-0.3-0.1-0.6-0.4-0.8-0.8c-0.2-0.4-0.2-0.9,0.1-1.2c0.3-0.4,0.8-0.5,1.3-0.4
				s1.2,0.7,1.3,1.3c0,0.3-0.1,0.6-0.4,0.8C22.9,298.8,22.6,298.9,22.3,298.9z M22.3,296.9c-0.2,0-0.5,0.1-0.6,0.3
				c-0.1,0.2-0.2,0.4,0,0.7c0.1,0.3,0.3,0.5,0.5,0.6s0.6,0,1.1-0.3l0,0c0.2-0.1,0.2-0.2,0.2-0.3c0-0.3-0.6-0.8-0.9-0.9
				C22.4,296.9,22.3,296.9,22.3,296.9z"
          ></path>
          <path
            d="M24.9,288.9c-0.1,0-0.1,0-0.2-0.1s-0.1-0.3,0-0.3l1.1-1c0.1-0.1,0.3-0.1,0.4,0s0.1,0.3,0,0.4l-1.1,1
				C25.1,288.9,25,288.9,24.9,288.9z"
          ></path>
          <path
            d="M25.9,290.3c-0.1,0-0.1,0-0.2-0.1s-0.1-0.3,0-0.4l2.1-1.9c0.1-0.1,0.3-0.1,0.4,0s0.1,0.3,0,0.4l-2.1,1.9
				C26,290.2,25.9,290.3,25.9,290.3z"
          ></path>
          <path
            d="M2.5,285.7c-0.1,0-0.2-0.1-0.2-0.2s0.1-0.3,0.2-0.3c0.3-0.1,1.6-0.4,2.7-1c0.1-0.1,0.3,0,0.3,0.1c0.1,0.1,0,0.3-0.1,0.3
				C4.2,285.3,2.8,285.6,2.5,285.7L2.5,285.7z"
          ></path>
          <path
            d="M3.2,288.4c-0.1,0-0.2-0.1-0.2-0.2s0-0.3,0.2-0.3c0.5-0.1,1.6-0.4,2.5-0.9c0.1-0.1,0.3,0,0.3,0.1c0.1,0.1,0,0.3-0.1,0.3
				C5,288,3.8,288.3,3.2,288.4C3.3,288.4,3.2,288.4,3.2,288.4z"
          ></path>
          <path
            d="M4.2,291.1c-0.1,0-0.2-0.1-0.2-0.2s0-0.3,0.2-0.3c0.5-0.1,1.5-0.4,2.3-0.9c0.1-0.1,0.3,0,0.3,0.1c0.1,0.1,0,0.3-0.1,0.3
				C5.9,290.6,5,290.9,4.2,291.1C4.3,291.1,4.3,291.1,4.2,291.1z"
          ></path>
          <path
            d="M5.5,294.1c-0.1,0-0.2-0.1-0.2-0.2s0-0.3,0.2-0.3c0.5-0.1,1.5-0.4,2.3-0.9c0.1-0.1,0.3,0,0.3,0.1c0.1,0.1,0,0.3-0.1,0.3
				C7.1,293.6,6.1,293.9,5.5,294.1L5.5,294.1z"
          ></path>
          <path
            d="M7.1,297c-0.1,0-0.2-0.1-0.2-0.2s0-0.3,0.2-0.3c0.5-0.1,1.4-0.4,2.1-0.8c0.1-0.1,0.3,0,0.3,0.1s0,0.3-0.1,0.3
				C8.7,296.5,7.8,296.8,7.1,297L7.1,297z"
          ></path>
          <path
            d="M9.3,299.9c-0.1,0-0.2-0.1-0.2-0.2s0-0.3,0.2-0.3c0.5-0.1,1.4-0.4,2.2-0.8c0.1-0.1,0.3,0,0.3,0.1c0.1,0.1,0,0.3-0.1,0.3
				C10.9,299.4,9.9,299.7,9.3,299.9C9.4,299.9,9.4,299.9,9.3,299.9z"
          ></path>
          <path
            d="M12.6,302.4c-0.1,0-0.2-0.1-0.2-0.2s0-0.3,0.2-0.3c0.5-0.2,1-0.4,1.3-0.6c0.1-0.1,0.3,0,0.3,0.1c0.1,0.1,0,0.3-0.1,0.3
				C13.7,302,13.2,302.2,12.6,302.4L12.6,302.4z"
          ></path>
          <path
            d="M30.6,272.7c-0.1,0-0.2-0.1-0.2-0.2c-0.1-0.1,0-0.3,0.1-0.3c2.3-1,4.5-2,4.5-2.1c0.1-0.1,0.3,0,0.3,0.1
				c0.1,0.1,0,0.3-0.1,0.3C35.2,270.6,33,271.7,30.6,272.7L30.6,272.7z"
          ></path>
          <path
            d="M32.6,274.1c-0.1,0-0.2-0.1-0.2-0.2c-0.1-0.1,0-0.3,0.1-0.3c1.8-0.8,3.3-1.5,3.3-1.5c0.1-0.1,0.3,0,0.3,0.1
				c0.1,0.1,0,0.3-0.1,0.3C35.9,272.6,34.5,273.3,32.6,274.1L32.6,274.1z"
          ></path>
        </g>
      </svg>